# xmcd CD database file generated by Grip 2.95
# 
# Track frame offsets:
#       150
#       17289
#       35698
#       59042
#       74015
#       84185
#       98982
#       127379
#       150748
#       175912
#       204551
#       225264
#       242979
#       254754
#       274491
#       294399
#       311974
#       323564
#       343493
# 
# Disc length: 4718 seconds
# 
# Revision: 3
# Processed by: cddbd v1.5PL3 Copyright (c) Steve Scherf et al.
# Submitted via: Grip 2.95
# 
DISCID=2a126c13
DTITLE=Wayne Hancock - Austin 2003-04-26 Disc 1
DYEAR=1900
DGENRE=
TTITLE0=Lose Your Mind
TTITLE1=Lousiana Blues
TTITLE2=Thunderstorms and Neon Signs
TTITLE3=Viper
TTITLE4=No Loving Tonight
TTITLE5=Happy Birthday Julie
TTITLE6=Milk Cow Blues
TTITLE7=Wild, Free, and Reckless
TTITLE8=California Blues
TTITLE9=We Three
TTITLE10=Do Re Mi
TTITLE11=Walkin' the Dog
TTITLE12="tell the Sheriff we're having a prayer meeting"
TTITLE13=Cow Cow Boogie
TTITLE14=87 Southbound
TTITLE15=Wine Spodiodie
TTITLE16="book of Waynerisms"
TTITLE17=Johnny Law
TTITLE18="God loves me. I love him too, but I gotta get my sleep."
EXTD=
EXTT0=
EXTT1=
EXTT2=
EXTT3=
EXTT4=
EXTT5=
EXTT6=
EXTT7=
EXTT8=
EXTT9=
EXTT10=
EXTT11=
EXTT12=
EXTT13=
EXTT14=
EXTT15=
EXTT16=
EXTT17=
EXTT18=
PLAYORDER=
